o BoxDown
usemtl Wall
v 14.752479763973282 0.49999992891167055 0.49999992891167055
v 14.752479763973282 0.49999992891167055 -0.49999992891167055
v 14.752479763973282 -0.49999992891167055 0.49999992891167055
v 14.752479763973282 -0.49999992891167055 -0.49999992891167055
v -14.752479763973282 0.49999992891167055 -0.49999992891167055
v -14.752479763973282 0.49999992891167055 0.49999992891167055
v -14.752479763973282 -0.49999992891167055 -0.49999992891167055
v -14.752479763973282 -0.49999992891167055 0.49999992891167055
v -14.752479763973282 0.49999992891167055 -0.49999992891167055
v 14.752479763973282 0.49999992891167055 -0.49999992891167055
v -14.752479763973282 0.49999992891167055 0.49999992891167055
v 14.752479763973282 0.49999992891167055 0.49999992891167055
v -14.752479763973282 -0.49999992891167055 0.49999992891167055
v 14.752479763973282 -0.49999992891167055 0.49999992891167055
v -14.752479763973282 -0.49999992891167055 -0.49999992891167055
v 14.752479763973282 -0.49999992891167055 -0.49999992891167055
v -14.752479763973282 0.49999992891167055 0.49999992891167055
v 14.752479763973282 0.49999992891167055 0.49999992891167055
v -14.752479763973282 -0.49999992891167055 0.49999992891167055
v 14.752479763973282 -0.49999992891167055 0.49999992891167055
v 14.752479763973282 0.49999992891167055 -0.49999992891167055
v -14.752479763973282 0.49999992891167055 -0.49999992891167055
v 14.752479763973282 -0.49999992891167055 -0.49999992891167055
v -14.752479763973282 -0.49999992891167055 -0.49999992891167055
vt 0 1
vt 1 1
vt 0 0
vt 1 0
vt 0 1
vt 1 1
vt 0 0
vt 1 0
vt 0 1
vt 1 1
vt 0 0
vt 1 0
vt 0 1
vt 1 1
vt 0 0
vt 1 0
vt 0 1
vt 1 1
vt 0 0
vt 1 0
vt 0 1
vt 1 1
vt 0 0
vt 1 0
vn 0.033892607073492786 0 0
vn 0.033892607073492786 0 0
vn 0.033892607073492786 0 0
vn 0.033892607073492786 0 0
vn -0.033892607073492786 0 0
vn -0.033892607073492786 0 0
vn -0.033892607073492786 0 0
vn -0.033892607073492786 0 0
vn 0 1.000000142176679 0
vn 0 1.000000142176679 0
vn 0 1.000000142176679 0
vn 0 1.000000142176679 0
vn 0 -1.000000142176679 0
vn 0 -1.000000142176679 0
vn 0 -1.000000142176679 0
vn 0 -1.000000142176679 0
vn 0 0 1.000000142176679
vn 0 0 1.000000142176679
vn 0 0 1.000000142176679
vn 0 0 1.000000142176679
vn 0 0 -1.000000142176679
vn 0 0 -1.000000142176679
vn 0 0 -1.000000142176679
vn 0 0 -1.000000142176679
f 1/1/1 3/3/3 2/2/2
f 3/3/3 4/4/4 2/2/2
f 5/5/5 7/7/7 6/6/6
f 7/7/7 8/8/8 6/6/6
f 9/9/9 11/11/11 10/10/10
f 11/11/11 12/12/12 10/10/10
f 13/13/13 15/15/15 14/14/14
f 15/15/15 16/16/16 14/14/14
f 17/17/17 19/19/19 18/18/18
f 19/19/19 20/20/20 18/18/18
f 21/21/21 23/23/23 22/22/22
f 23/23/23 24/24/24 22/22/22
o BoxTop
usemtl Wall
v 14.752479763973282 8.29188235651023 0.49999992891167055
v 14.752479763973282 8.29188235651023 -0.49999992891167055
v 14.752479763973282 7.29188249868689 0.49999992891167055
v 14.752479763973282 7.29188249868689 -0.49999992891167055
v -14.752479763973282 8.29188235651023 -0.49999992891167055
v -14.752479763973282 8.29188235651023 0.49999992891167055
v -14.752479763973282 7.29188249868689 -0.49999992891167055
v -14.752479763973282 7.29188249868689 0.49999992891167055
v -14.752479763973282 8.29188235651023 -0.49999992891167055
v 14.752479763973282 8.29188235651023 -0.49999992891167055
v -14.752479763973282 8.29188235651023 0.49999992891167055
v 14.752479763973282 8.29188235651023 0.49999992891167055
v -14.752479763973282 7.29188249868689 0.49999992891167055
v 14.752479763973282 7.29188249868689 0.49999992891167055
v -14.752479763973282 7.29188249868689 -0.49999992891167055
v 14.752479763973282 7.29188249868689 -0.49999992891167055
v -14.752479763973282 8.29188235651023 0.49999992891167055
v 14.752479763973282 8.29188235651023 0.49999992891167055
v -14.752479763973282 7.29188249868689 0.49999992891167055
v 14.752479763973282 7.29188249868689 0.49999992891167055
v 14.752479763973282 8.29188235651023 -0.49999992891167055
v -14.752479763973282 8.29188235651023 -0.49999992891167055
v 14.752479763973282 7.29188249868689 -0.49999992891167055
v -14.752479763973282 7.29188249868689 -0.49999992891167055
vt 0 1
vt 1 1
vt 0 0
vt 1 0
vt 0 1
vt 1 1
vt 0 0
vt 1 0
vt 0 1
vt 1 1
vt 0 0
vt 1 0
vt 0 1
vt 1 1
vt 0 0
vt 1 0
vt 0 1
vt 1 1
vt 0 0
vt 1 0
vt 0 1
vt 1 1
vt 0 0
vt 1 0
vn 0.033892607073492786 0 0
vn 0.033892607073492786 0 0
vn 0.033892607073492786 0 0
vn 0.033892607073492786 0 0
vn -0.033892607073492786 0 0
vn -0.033892607073492786 0 0
vn -0.033892607073492786 0 0
vn -0.033892607073492786 0 0
vn 0 1.000000142176679 0
vn 0 1.000000142176679 0
vn 0 1.000000142176679 0
vn 0 1.000000142176679 0
vn 0 -1.000000142176679 0
vn 0 -1.000000142176679 0
vn 0 -1.000000142176679 0
vn 0 -1.000000142176679 0
vn 0 0 1.000000142176679
vn 0 0 1.000000142176679
vn 0 0 1.000000142176679
vn 0 0 1.000000142176679
vn 0 0 -1.000000142176679
vn 0 0 -1.000000142176679
vn 0 0 -1.000000142176679
vn 0 0 -1.000000142176679
f 25/25/25 27/27/27 26/26/26
f 27/27/27 28/28/28 26/26/26
f 29/29/29 31/31/31 30/30/30
f 31/31/31 32/32/32 30/30/30
f 33/33/33 35/35/35 34/34/34
f 35/35/35 36/36/36 34/34/34
f 37/37/37 39/39/39 38/38/38
f 39/39/39 40/40/40 38/38/38
f 41/41/41 43/43/43 42/42/42
f 43/43/43 44/44/44 42/42/42
f 45/45/45 47/47/47 46/46/46
f 47/47/47 48/48/48 46/46/46
o Curve
v -11.934643464270346 0.6614631695444748 0
v -11.934643464270346 0.7788735164101288 0
v -11.399539238415025 0.9715587321440741 0
v -11.934643464270346 0.6614631695444748 0
v -12.469747690125667 0.9715587321440743 0
v -11.934643464270346 0.7788735164101288 0
v -11.934643464270346 0.7788735164101288 0
v -11.501141315899156 1.0300911685223744 0
v -11.399539238415025 0.9715587321440741 0
v -11.934643464270346 0.7788735164101288 0
v -12.469747690125667 0.9715587321440743 0
v -12.368145612641536 1.0300911685223744 0
v -11.399539238415025 0.9715587321440741 0
v -11.501141315899156 1.0300911685223744 0
v -11.399539238415025 1.5914034402701123 0
v -12.469747690125667 0.9715587321440743 0
v -12.469747690125667 1.5914034402701125 0
v -12.368145612641536 1.0300911685223744 0
v -11.501141315899156 1.0300911685223744 0
v -11.501141315899156 1.532871003891812 0
v -11.399539238415025 1.5914034402701123 0
v -12.368145612641536 1.0300911685223744 0
v -12.469747690125667 1.5914034402701125 0
v -12.368145612641536 1.5328710038918123 0
v -11.501141315899156 1.532871003891812 0
v -11.934643464270346 1.7840883504138378 0
v -11.399539238415025 1.5914034402701123 0
v -12.368145612641536 1.5328710038918123 0
v -12.469747690125667 1.5914034402701125 0
v -11.934643464270346 1.7840883504138378 0
v -11.399539238415025 1.5914034402701123 0
v -11.934643464270346 1.7840883504138378 0
v -11.934643464270346 1.9014986192448464 0
v -12.469747690125667 1.5914034402701125 0
v -11.934643464270346 1.9014986192448464 0
v -11.934643464270346 1.7840883504138378 0
v -11.934643464270346 0.7788735164101288 0.11008554138243196
v -11.934643464270346 0.6614631695444748 0.11008554138243196
v -11.399539238415025 0.9715587321440741 0.11008554138243196
v -12.469747690125667 0.9715587321440743 0.11008554138243196
v -11.934643464270346 0.6614631695444748 0.11008554138243196
v -11.934643464270346 0.7788735164101288 0.11008554138243196
v -11.501141315899156 1.0300911685223744 0.11008554138243196
v -11.934643464270346 0.7788735164101288 0.11008554138243196
v -11.399539238415025 0.9715587321440741 0.11008554138243196
v -12.469747690125667 0.9715587321440743 0.11008554138243196
v -11.934643464270346 0.7788735164101288 0.11008554138243196
v -12.368145612641536 1.0300911685223744 0.11008554138243196
v -11.501141315899156 1.0300911685223744 0.11008554138243196
v -11.399539238415025 0.9715587321440741 0.11008554138243196
v -11.399539238415025 1.5914034402701123 0.11008554138243196
v -12.469747690125667 1.5914034402701125 0.11008554138243196
v -12.469747690125667 0.9715587321440743 0.11008554138243196
v -12.368145612641536 1.0300911685223744 0.11008554138243196
v -11.501141315899156 1.532871003891812 0.11008554138243196
v -11.501141315899156 1.0300911685223744 0.11008554138243196
v -11.399539238415025 1.5914034402701123 0.11008554138243196
v -12.469747690125667 1.5914034402701125 0.11008554138243196
v -12.368145612641536 1.0300911685223744 0.11008554138243196
v -12.368145612641536 1.5328710038918123 0.11008554138243196
v -11.934643464270346 1.7840883504138378 0.11008554138243196
v -11.501141315899156 1.532871003891812 0.11008554138243196
v -11.399539238415025 1.5914034402701123 0.11008554138243196
v -12.469747690125667 1.5914034402701125 0.11008554138243196
v -12.368145612641536 1.5328710038918123 0.11008554138243196
v -11.934643464270346 1.7840883504138378 0.11008554138243196
v -11.934643464270346 1.7840883504138378 0.11008554138243196
v -11.399539238415025 1.5914034402701123 0.11008554138243196
v -11.934643464270346 1.9014986192448464 0.11008554138243196
v -11.934643464270346 1.9014986192448464 0.11008554138243196
v -12.469747690125667 1.5914034402701125 0.11008554138243196
v -11.934643464270346 1.7840883504138378 0.11008554138243196
v -11.501141315899156 1.532871003891812 0.11008554138243196
v -11.934643464270346 1.7840883504138378 0.11008554138243196
v -11.934643464270346 1.7840883504138378 0
v -11.501141315899156 1.532871003891812 0
v -11.501141315899156 1.532871003891812 0.11008554138243196
v -11.934643464270346 1.7840883504138378 0
v -12.368145612641536 1.0300911685223744 0.11008554138243196
v -11.934643464270346 0.7788735164101288 0.11008554138243196
v -11.934643464270346 0.7788735164101288 0
v -12.368145612641536 1.0300911685223744 0
v -12.368145612641536 1.0300911685223744 0.11008554138243196
v -11.934643464270346 0.7788735164101288 0
v -11.934643464270346 0.7788735164101288 0.11008554138243196
v -11.501141315899156 1.0300911685223744 0.11008554138243196
v -11.501141315899156 1.0300911685223744 0
v -11.934643464270346 0.7788735164101288 0
v -11.934643464270346 0.7788735164101288 0.11008554138243196
v -11.501141315899156 1.0300911685223744 0
v -12.469747690125667 0.9715587321440743 0.11008554138243196
v -12.469747690125667 1.5914034402701125 0.11008554138243196
v -12.469747690125667 1.5914034402701125 0
v -12.469747690125667 0.9715587321440743 0
v -12.469747690125667 0.9715587321440743 0.11008554138243196
v -12.469747690125667 1.5914034402701125 0
v -11.934643464270346 1.7840883504138378 0.11008554138243196
v -12.368145612641536 1.5328710038918123 0.11008554138243196
v -12.368145612641536 1.5328710038918123 0
v -11.934643464270346 1.7840883504138378 0
v -11.934643464270346 1.7840883504138378 0.11008554138243196
v -12.368145612641536 1.5328710038918123 0
v -11.934643464270346 0.6614631695444748 0.11008554138243196
v -12.469747690125667 0.9715587321440743 0.11008554138243196
v -12.469747690125667 0.9715587321440743 0
v -11.934643464270346 0.6614631695444748 0
v -11.934643464270346 0.6614631695444748 0.11008554138243196
v -12.469747690125667 0.9715587321440743 0
v -12.368145612641536 1.5328710038918123 0.11008554138243196
v -12.368145612641536 1.0300911685223744 0.11008554138243196
v -12.368145612641536 1.0300911685223744 0
v -12.368145612641536 1.5328710038918123 0
v -12.368145612641536 1.5328710038918123 0.11008554138243196
v -12.368145612641536 1.0300911685223744 0
v -11.501141315899156 1.0300911685223744 0.11008554138243196
v -11.501141315899156 1.532871003891812 0.11008554138243196
v -11.501141315899156 1.532871003891812 0
v -11.501141315899156 1.0300911685223744 0
v -11.501141315899156 1.0300911685223744 0.11008554138243196
v -11.501141315899156 1.532871003891812 0
v -11.399539238415025 1.5914034402701123 0.11008554138243196
v -11.399539238415025 0.9715587321440741 0.11008554138243196
v -11.399539238415025 0.9715587321440741 0
v -11.399539238415025 1.5914034402701123 0
v -11.399539238415025 1.5914034402701123 0.11008554138243196
v -11.399539238415025 0.9715587321440741 0
v -12.469747690125667 1.5914034402701125 0.11008554138243196
v -11.934643464270346 1.9014986192448464 0.11008554138243196
v -11.934643464270346 1.9014986192448464 0
v -12.469747690125667 1.5914034402701125 0
v -12.469747690125667 1.5914034402701125 0.11008554138243196
v -11.934643464270346 1.9014986192448464 0
v -11.399539238415025 0.9715587321440741 0.11008554138243196
v -11.934643464270346 0.6614631695444748 0.11008554138243196
v -11.934643464270346 0.6614631695444748 0
v -11.399539238415025 0.9715587321440741 0
v -11.399539238415025 0.9715587321440741 0.11008554138243196
v -11.934643464270346 0.6614631695444748 0
v -11.934643464270346 1.9014986192448464 0.11008554138243196
v -11.399539238415025 1.5914034402701123 0.11008554138243196
v -11.399539238415025 1.5914034402701123 0
v -11.934643464270346 1.9014986192448464 0
v -11.934643464270346 1.9014986192448464 0.11008554138243196
v -11.399539238415025 1.5914034402701123 0
vt NaN NaN
vt NaN NaN
vt NaN NaN
vt NaN NaN
vt NaN NaN
vt NaN NaN
vt NaN NaN
vt NaN NaN
vt NaN NaN
vt NaN NaN
vt NaN NaN
vt NaN NaN
vt NaN NaN
vt NaN NaN
vt NaN NaN
vt NaN NaN
vt NaN NaN
vt NaN NaN
vt NaN NaN
vt NaN NaN
vt NaN NaN
vt NaN NaN
vt NaN NaN
vt NaN NaN
vt NaN NaN
vt NaN NaN
vt NaN NaN
vt NaN NaN
vt NaN NaN
vt NaN NaN
vt NaN NaN
vt NaN NaN
vt NaN NaN
vt NaN NaN
vt NaN NaN
vt NaN NaN
vt NaN NaN
vt NaN NaN
vt NaN NaN
vt NaN NaN
vt NaN NaN
vt NaN NaN
vt NaN NaN
vt NaN NaN
vt NaN NaN
vt NaN NaN
vt NaN NaN
vt NaN NaN
vt NaN NaN
vt NaN NaN
vt NaN NaN
vt NaN NaN
vt NaN NaN
vt NaN NaN
vt NaN NaN
vt NaN NaN
vt NaN NaN
vt NaN NaN
vt NaN NaN
vt NaN NaN
vt NaN NaN
vt NaN NaN
vt NaN NaN
vt NaN NaN
vt NaN NaN
vt NaN NaN
vt NaN NaN
vt NaN NaN
vt NaN NaN
vt NaN NaN
vt NaN NaN
vt NaN NaN
vt NaN NaN
vt NaN NaN
vt NaN NaN
vt NaN NaN
vt NaN NaN
vt NaN NaN
vt NaN NaN
vt NaN NaN
vt NaN NaN
vt NaN NaN
vt NaN NaN
vt NaN NaN
vt NaN NaN
vt NaN NaN
vt NaN NaN
vt NaN NaN
vt NaN NaN
vt NaN NaN
vt NaN NaN
vt NaN NaN
vt NaN NaN
vt NaN NaN
vt NaN NaN
vt NaN NaN
vt NaN NaN
vt NaN NaN
vt NaN NaN
vt NaN NaN
vt NaN NaN
vt NaN NaN
vt NaN NaN
vt NaN NaN
vt NaN NaN
vt NaN NaN
vt NaN NaN
vt NaN NaN
vt NaN NaN
vt NaN NaN
vt NaN NaN
vt NaN NaN
vt NaN NaN
vt NaN NaN
vt NaN NaN
vt NaN NaN
vt NaN NaN
vt NaN NaN
vt NaN NaN
vt NaN NaN
vt NaN NaN
vt NaN NaN
vt NaN NaN
vt NaN NaN
vt NaN NaN
vt NaN NaN
vt NaN NaN
vt NaN NaN
vt NaN NaN
vt NaN NaN
vt NaN NaN
vt NaN NaN
vt NaN NaN
vt NaN NaN
vt NaN NaN
vt NaN NaN
vt NaN NaN
vt NaN NaN
vt NaN NaN
vt NaN NaN
vt NaN NaN
vt NaN NaN
vt NaN NaN
vt NaN NaN
vn 0 0 -0.001666666666666667
vn 0 0 -0.001666666666666667
vn 0 0 -0.001666666666666667
vn 0 0 -0.001666666666666667
vn 0 0 -0.001666666666666667
vn 0 0 -0.001666666666666667
vn 0 0 -0.001666666666666667
vn 0 0 -0.001666666666666667
vn 0 0 -0.001666666666666667
vn 0 0 -0.001666666666666667
vn 0 0 -0.001666666666666667
vn 0 0 -0.001666666666666667
vn 0 0 -0.001666666666666667
vn 0 0 -0.001666666666666667
vn 0 0 -0.001666666666666667
vn 0 0 -0.001666666666666667
vn 0 0 -0.001666666666666667
vn 0 0 -0.001666666666666667
vn 0 0 -0.001666666666666667
vn 0 0 -0.001666666666666667
vn 0 0 -0.001666666666666667
vn 0 0 -0.001666666666666667
vn 0 0 -0.001666666666666667
vn 0 0 -0.001666666666666667
vn 0 0 -0.001666666666666667
vn 0 0 -0.001666666666666667
vn 0 0 -0.001666666666666667
vn 0 0 -0.001666666666666667
vn 0 0 -0.001666666666666667
vn 0 0 -0.001666666666666667
vn 0 0 -0.001666666666666667
vn 0 0 -0.001666666666666667
vn 0 0 -0.001666666666666667
vn 0 0 -0.001666666666666667
vn 0 0 -0.001666666666666667
vn 0 0 -0.001666666666666667
vn 0 0 0.001666666666666667
vn 0 0 0.001666666666666667
vn 0 0 0.001666666666666667
vn 0 0 0.001666666666666667
vn 0 0 0.001666666666666667
vn 0 0 0.001666666666666667
vn 0 0 0.001666666666666667
vn 0 0 0.001666666666666667
vn 0 0 0.001666666666666667
vn 0 0 0.001666666666666667
vn 0 0 0.001666666666666667
vn 0 0 0.001666666666666667
vn 0 0 0.001666666666666667
vn 0 0 0.001666666666666667
vn 0 0 0.001666666666666667
vn 2.218224892658327e-10 -2.716542014583001e-26 0.001666666666666667
vn 0 0 0.001666666666666667
vn 0 0 0.001666666666666667
vn 2.7347065649034145e-10 -3.34904964131622e-26 0.001666666666666667
vn 0 0 0.001666666666666667
vn 0 0 0.001666666666666667
vn 2.218224892658327e-10 -2.716542014583001e-26 0.001666666666666667
vn 0 0 0.001666666666666667
vn -2.7347065649034145e-10 3.34904964131622e-26 0.001666666666666667
vn 0 0 0.001666666666666667
vn 2.7347065649034145e-10 -3.34904964131622e-26 0.001666666666666667
vn 0 0 0.001666666666666667
vn 2.218224892658327e-10 -2.716542014583001e-26 0.001666666666666667
vn -2.7347065649034145e-10 3.34904964131622e-26 0.001666666666666667
vn 0 0 0.001666666666666667
vn 0 0 0.001666666666666667
vn 0 0 0.001666666666666667
vn 0 0 0.001666666666666667
vn 0 0 0.001666666666666667
vn 2.218224892658327e-10 -2.716542014583001e-26 0.001666666666666667
vn 0 0 0.001666666666666667
vn -0.0008356643716494245 -0.0014420274893442793 0
vn -0.0008356643716494245 -0.0014420274893442793 0
vn -0.0008356643716494245 -0.0014420274893442793 0
vn -0.0008356643716494245 -0.0014420274893442793 0
vn -0.0008356643716494245 -0.0014420274893442793 0
vn -0.0008356643716494245 -0.0014420274893442793 0
vn 0.000835663974285126 0.0014420274893442793 0
vn 0.000835663974285126 0.0014420274893442793 0
vn 0.000835663974285126 0.0014420274893442793 0
vn 0.000835663974285126 0.0014420274893442793 0
vn 0.000835663974285126 0.0014420274893442793 0
vn 0.000835663974285126 0.0014420274893442793 0
vn -0.0008356639742851256 0.0014420274893442793 0
vn -0.0008356639742851256 0.0014420274893442793 0
vn -0.0008356639742851256 0.0014420274893442793 0
vn -0.0008356639742851256 0.0014420274893442793 0
vn -0.0008356639742851256 0.0014420274893442793 0
vn -0.0008356639742851256 0.0014420274893442793 0
vn -0.0016666666666666668 2.041077998578922e-19 0
vn -0.0016666666666666668 2.041077998578922e-19 0
vn -0.0016666666666666668 2.041077998578922e-19 0
vn -0.0016666666666666668 2.041077998578922e-19 0
vn -0.0016666666666666668 2.041077998578922e-19 0
vn -0.0016666666666666668 2.041077998578922e-19 0
vn 0.0008356643716494241 -0.0014420274893442793 0
vn 0.0008356643716494241 -0.0014420274893442793 0
vn 0.0008356643716494241 -0.0014420274893442793 0
vn 0.0008356643716494241 -0.0014420274893442793 0
vn 0.0008356643716494241 -0.0014420274893442793 0
vn 0.0008356643716494241 -0.0014420274893442793 0
vn -0.0008356617887814843 -0.001442028880119324 0
vn -0.0008356617887814843 -0.001442028880119324 0
vn -0.0008356617887814843 -0.001442028880119324 0
vn -0.0008356617887814843 -0.001442028880119324 0
vn -0.0008356617887814843 -0.001442028880119324 0
vn -0.0008356617887814843 -0.001442028880119324 0
vn 0.0016666666666666668 -2.041077998578922e-19 0
vn 0.0016666666666666668 -2.041077998578922e-19 0
vn 0.0016666666666666668 -2.041077998578922e-19 0
vn 0.0016666666666666668 -2.041077998578922e-19 0
vn 0.0016666666666666668 -2.041077998578922e-19 0
vn 0.0016666666666666668 -2.041077998578922e-19 0
vn -0.0016666666666666668 2.041077998578922e-19 0
vn -0.0016666666666666668 2.041077998578922e-19 0
vn -0.0016666666666666668 2.041077998578922e-19 0
vn -0.0016666666666666668 2.041077998578922e-19 0
vn -0.0016666666666666668 2.041077998578922e-19 0
vn -0.0016666666666666668 2.041077998578922e-19 0
vn 0.0016666666666666668 -2.041077998578922e-19 0
vn 0.0016666666666666668 -2.041077998578922e-19 0
vn 0.0016666666666666668 -2.041077998578922e-19 0
vn 0.0016666666666666668 -2.041077998578922e-19 0
vn 0.0016666666666666668 -2.041077998578922e-19 0
vn 0.0016666666666666668 -2.041077998578922e-19 0
vn -0.0008356617887814838 0.001442028880119324 0
vn -0.0008356617887814838 0.001442028880119324 0
vn -0.0008356617887814838 0.001442028880119324 0
vn -0.0008356617887814838 0.001442028880119324 0
vn -0.0008356617887814838 0.001442028880119324 0
vn -0.0008356617887814838 0.001442028880119324 0
vn 0.0008356617887814838 -0.001442028880119324 0
vn 0.0008356617887814838 -0.001442028880119324 0
vn 0.0008356617887814838 -0.001442028880119324 0
vn 0.0008356617887814838 -0.001442028880119324 0
vn 0.0008356617887814838 -0.001442028880119324 0
vn 0.0008356617887814838 -0.001442028880119324 0
vn 0.0008356617887814843 0.001442028880119324 0
vn 0.0008356617887814843 0.001442028880119324 0
vn 0.0008356617887814843 0.001442028880119324 0
vn 0.0008356617887814843 0.001442028880119324 0
vn 0.0008356617887814843 0.001442028880119324 0
vn 0.0008356617887814843 0.001442028880119324 0
f 49/49/49 50/50/50 51/51/51
f 52/52/52 53/53/53 54/54/54
f 55/55/55 56/56/56 57/57/57
f 58/58/58 59/59/59 60/60/60
f 61/61/61 62/62/62 63/63/63
f 64/64/64 65/65/65 66/66/66
f 67/67/67 68/68/68 69/69/69
f 70/70/70 71/71/71 72/72/72
f 73/73/73 74/74/74 75/75/75
f 76/76/76 77/77/77 78/78/78
f 79/79/79 80/80/80 81/81/81
f 82/82/82 83/83/83 84/84/84
f 85/85/85 86/86/86 87/87/87
f 88/88/88 89/89/89 90/90/90
f 91/91/91 92/92/92 93/93/93
f 94/94/94 95/95/95 96/96/96
f 97/97/97 98/98/98 99/99/99
f 100/100/100 101/101/101 102/102/102
f 103/103/103 104/104/104 105/105/105
f 106/106/106 107/107/107 108/108/108
f 109/109/109 110/110/110 111/111/111
f 112/112/112 113/113/113 114/114/114
f 115/115/115 116/116/116 117/117/117
f 118/118/118 119/119/119 120/120/120
f 121/121/121 122/122/122 123/123/123
f 124/124/124 125/125/125 126/126/126
f 127/127/127 128/128/128 129/129/129
f 130/130/130 131/131/131 132/132/132
f 133/133/133 134/134/134 135/135/135
f 136/136/136 137/137/137 138/138/138
f 139/139/139 140/140/140 141/141/141
f 142/142/142 143/143/143 144/144/144
f 145/145/145 146/146/146 147/147/147
f 148/148/148 149/149/149 150/150/150
f 151/151/151 152/152/152 153/153/153
f 154/154/154 155/155/155 156/156/156
f 157/157/157 158/158/158 159/159/159
f 160/160/160 161/161/161 162/162/162
f 163/163/163 164/164/164 165/165/165
f 166/166/166 167/167/167 168/168/168
f 169/169/169 170/170/170 171/171/171
f 172/172/172 173/173/173 174/174/174
f 175/175/175 176/176/176 177/177/177
f 178/178/178 179/179/179 180/180/180
f 181/181/181 182/182/182 183/183/183
f 184/184/184 185/185/185 186/186/186
f 187/187/187 188/188/188 189/189/189
f 190/190/190 191/191/191 192/192/192
